<mxfile host="app.diagrams.net" modified="2023-09-12T14:08:38.609Z" agent="Mozilla/5.0 (Windows NT 10.0; Win64; x64) AppleWebKit/537.36 (KHTML, like Gecko) Chrome/116.0.0.0 Safari/537.36" etag="gZgpSi7M2vtXe1Lj_5Wa" version="21.7.4" type="device">
  <diagram name="Página-1" id="7lMlWe4-rNQHvwd21Z25">
    <mxGraphModel dx="880" dy="470" grid="1" gridSize="10" guides="1" tooltips="1" connect="1" arrows="1" fold="1" page="1" pageScale="1" pageWidth="827" pageHeight="1169" background="none" math="0" shadow="0">
      <root>
        <mxCell id="0" />
        <mxCell id="1" parent="0" />
        <mxCell id="881NTKePuyEQlg7EYjVx-10" style="edgeStyle=orthogonalEdgeStyle;rounded=0;orthogonalLoop=1;jettySize=auto;html=1;entryX=1.017;entryY=0.4;entryDx=0;entryDy=0;entryPerimeter=0;exitX=0.5;exitY=0.5;exitDx=0;exitDy=0;exitPerimeter=0;labelBackgroundColor=none;strokeColor=#60E696;fontColor=default;" edge="1" parent="1" source="881NTKePuyEQlg7EYjVx-1" target="881NTKePuyEQlg7EYjVx-5">
          <mxGeometry relative="1" as="geometry">
            <Array as="points">
              <mxPoint x="310" y="270" />
              <mxPoint x="310" y="72" />
            </Array>
          </mxGeometry>
        </mxCell>
        <mxCell id="881NTKePuyEQlg7EYjVx-11" style="edgeStyle=orthogonalEdgeStyle;rounded=0;orthogonalLoop=1;jettySize=auto;html=1;entryX=1;entryY=0.5;entryDx=0;entryDy=0;labelBackgroundColor=none;strokeColor=#60E696;fontColor=default;" edge="1" parent="1" source="881NTKePuyEQlg7EYjVx-1" target="881NTKePuyEQlg7EYjVx-3">
          <mxGeometry relative="1" as="geometry" />
        </mxCell>
        <mxCell id="881NTKePuyEQlg7EYjVx-14" style="edgeStyle=orthogonalEdgeStyle;rounded=0;orthogonalLoop=1;jettySize=auto;html=1;exitX=0.5;exitY=0.5;exitDx=0;exitDy=0;exitPerimeter=0;entryX=0.15;entryY=0.95;entryDx=0;entryDy=0;entryPerimeter=0;labelBackgroundColor=none;strokeColor=#60E696;fontColor=default;" edge="1" parent="1" source="881NTKePuyEQlg7EYjVx-1" target="881NTKePuyEQlg7EYjVx-8">
          <mxGeometry relative="1" as="geometry" />
        </mxCell>
        <mxCell id="881NTKePuyEQlg7EYjVx-15" style="edgeStyle=orthogonalEdgeStyle;rounded=0;orthogonalLoop=1;jettySize=auto;html=1;exitX=0.5;exitY=0.5;exitDx=0;exitDy=0;exitPerimeter=0;entryX=-0.008;entryY=0.588;entryDx=0;entryDy=0;entryPerimeter=0;labelBackgroundColor=none;strokeColor=#60E696;fontColor=default;" edge="1" parent="1" source="881NTKePuyEQlg7EYjVx-1" target="881NTKePuyEQlg7EYjVx-7">
          <mxGeometry relative="1" as="geometry" />
        </mxCell>
        <mxCell id="881NTKePuyEQlg7EYjVx-16" style="edgeStyle=orthogonalEdgeStyle;rounded=0;orthogonalLoop=1;jettySize=auto;html=1;exitX=0.5;exitY=0.5;exitDx=0;exitDy=0;exitPerimeter=0;labelBackgroundColor=none;strokeColor=#60E696;fontColor=default;" edge="1" parent="1" source="881NTKePuyEQlg7EYjVx-1" target="881NTKePuyEQlg7EYjVx-6">
          <mxGeometry relative="1" as="geometry">
            <Array as="points">
              <mxPoint x="399" y="450" />
            </Array>
          </mxGeometry>
        </mxCell>
        <mxCell id="881NTKePuyEQlg7EYjVx-17" style="edgeStyle=orthogonalEdgeStyle;rounded=0;orthogonalLoop=1;jettySize=auto;html=1;exitX=0.5;exitY=0.5;exitDx=0;exitDy=0;exitPerimeter=0;entryX=0.917;entryY=0.875;entryDx=0;entryDy=0;entryPerimeter=0;labelBackgroundColor=none;strokeColor=#60E696;fontColor=default;" edge="1" parent="1" source="881NTKePuyEQlg7EYjVx-1" target="881NTKePuyEQlg7EYjVx-4">
          <mxGeometry relative="1" as="geometry" />
        </mxCell>
        <mxCell id="881NTKePuyEQlg7EYjVx-1" value="Bibliotecário&lt;br&gt;" style="shape=umlActor;verticalLabelPosition=bottom;verticalAlign=top;html=1;outlineConnect=0;labelBackgroundColor=none;fillColor=#F694C1;strokeColor=#AF45ED;fontColor=#095C86;" vertex="1" parent="1">
          <mxGeometry x="383.5" y="230" width="30" height="60" as="geometry" />
        </mxCell>
        <mxCell id="881NTKePuyEQlg7EYjVx-18" style="edgeStyle=orthogonalEdgeStyle;rounded=0;orthogonalLoop=1;jettySize=auto;html=1;exitX=0.5;exitY=0.5;exitDx=0;exitDy=0;exitPerimeter=0;entryX=0;entryY=0.5;entryDx=0;entryDy=0;labelBackgroundColor=none;strokeColor=#df0707;fontColor=default;" edge="1" parent="1" source="881NTKePuyEQlg7EYjVx-2" target="881NTKePuyEQlg7EYjVx-9">
          <mxGeometry relative="1" as="geometry">
            <Array as="points">
              <mxPoint x="399" y="120" />
              <mxPoint x="487" y="120" />
              <mxPoint x="487" y="80" />
            </Array>
          </mxGeometry>
        </mxCell>
        <mxCell id="881NTKePuyEQlg7EYjVx-20" style="edgeStyle=orthogonalEdgeStyle;rounded=0;orthogonalLoop=1;jettySize=auto;html=1;exitX=0.5;exitY=0.5;exitDx=0;exitDy=0;exitPerimeter=0;strokeColor=#f20202;fontColor=#095C86;fillColor=#F694C1;entryX=0.5;entryY=1;entryDx=0;entryDy=0;" edge="1" parent="1" source="881NTKePuyEQlg7EYjVx-2" target="881NTKePuyEQlg7EYjVx-4">
          <mxGeometry relative="1" as="geometry">
            <mxPoint x="180" y="372" as="targetPoint" />
            <Array as="points">
              <mxPoint x="399" y="30" />
              <mxPoint x="40" y="30" />
              <mxPoint x="40" y="470" />
              <mxPoint x="180" y="470" />
            </Array>
          </mxGeometry>
        </mxCell>
        <mxCell id="881NTKePuyEQlg7EYjVx-2" value="Leitor" style="shape=umlActor;verticalLabelPosition=bottom;verticalAlign=top;html=1;outlineConnect=0;labelBackgroundColor=none;fillColor=#F694C1;strokeColor=#AF45ED;fontColor=#095C86;" vertex="1" parent="1">
          <mxGeometry x="383.5" y="40" width="30" height="60" as="geometry" />
        </mxCell>
        <mxCell id="881NTKePuyEQlg7EYjVx-3" value="listar leitores registrados" style="ellipse;whiteSpace=wrap;html=1;labelBackgroundColor=none;fillColor=#F694C1;strokeColor=#AF45ED;fontColor=#095C86;" vertex="1" parent="1">
          <mxGeometry x="120" y="160" width="120" height="80" as="geometry" />
        </mxCell>
        <mxCell id="881NTKePuyEQlg7EYjVx-4" value="realizar empréstimo de livros" style="ellipse;whiteSpace=wrap;html=1;labelBackgroundColor=none;fillColor=#F694C1;strokeColor=#AF45ED;fontColor=#095C86;" vertex="1" parent="1">
          <mxGeometry x="120" y="280" width="120" height="80" as="geometry" />
        </mxCell>
        <mxCell id="881NTKePuyEQlg7EYjVx-5" value="Registrar leitor" style="ellipse;whiteSpace=wrap;html=1;labelBackgroundColor=none;fillColor=#F694C1;strokeColor=#AF45ED;fontColor=#095C86;" vertex="1" parent="1">
          <mxGeometry x="120" y="40" width="120" height="80" as="geometry" />
        </mxCell>
        <mxCell id="881NTKePuyEQlg7EYjVx-6" value="mostrar histórico de ações&amp;nbsp;" style="ellipse;whiteSpace=wrap;html=1;labelBackgroundColor=none;fillColor=#F694C1;strokeColor=#AF45ED;fontColor=#095C86;" vertex="1" parent="1">
          <mxGeometry x="560" y="400" width="120" height="80" as="geometry" />
        </mxCell>
        <mxCell id="881NTKePuyEQlg7EYjVx-7" value="listar livros emprestados" style="ellipse;whiteSpace=wrap;html=1;labelBackgroundColor=none;fillColor=#F694C1;strokeColor=#AF45ED;fontColor=#095C86;" vertex="1" parent="1">
          <mxGeometry x="560" y="280" width="120" height="80" as="geometry" />
        </mxCell>
        <mxCell id="881NTKePuyEQlg7EYjVx-8" value="listar livros disponíveis&amp;nbsp;" style="ellipse;whiteSpace=wrap;html=1;labelBackgroundColor=none;fillColor=#F694C1;strokeColor=#AF45ED;fontColor=#095C86;" vertex="1" parent="1">
          <mxGeometry x="560" y="160" width="120" height="80" as="geometry" />
        </mxCell>
        <mxCell id="881NTKePuyEQlg7EYjVx-9" value="realizar devolução de livros" style="ellipse;whiteSpace=wrap;html=1;labelBackgroundColor=none;fillColor=#F694C1;strokeColor=#AF45ED;fontColor=#095C86;" vertex="1" parent="1">
          <mxGeometry x="560" y="40" width="120" height="80" as="geometry" />
        </mxCell>
      </root>
    </mxGraphModel>
  </diagram>
</mxfile>
